<?xml version="1.0" encoding="utf-8"?>
<!-- Generator: Adobe Illustrator 27.0.0, SVG Export Plug-In . SVG Version: 6.00 Build 0)  -->
<svg version="1.1" id="Warstwa_1" xmlns="http://www.w3.org/2000/svg" xmlns:xlink="http://www.w3.org/1999/xlink" x="0px" y="0px"
	 viewBox="0 0 960 1080" style="enable-background:new 0 0 960 1080;" xml:space="preserve">
<style type="text/css">
	.st0{fill:#E6E6E6;}
</style>
<g>
	<g>
		<path class="st0" d="M128.87,506.93c0.43-1.48,1.44-2.6,2.16-3.89c0.66-1.19,1.96-1.55,3.26-1.52c5.11,0.1,10.16-0.45,15.18-1.4
			c0.16-0.03,0.32-0.03,0.48-0.03c5.65,0.03,11.2-1.18,16.83-1.47c2.02-0.1,4.1-0.53,5.99-1.23c1.34-0.49,2.52-1.56,3.41-2.82
			c1.37-1.94,3.22-2.85,5.65-2.78c3.99,0.11,7.88-0.87,11.84-1.2c4.39-0.37,8.75-1.34,13.08-2.25c3.3-0.69,6.54-1.64,9.78-2.58
			c3.4-0.99,6.83-1.95,10.14-3.18c4.48-1.66,9.2-2.23,13.82-3.2c6.58-1.37,13.3-1.27,19.99-1.29c5.44-0.02,10.9-0.11,16.29,0.5
			c3.07,0.35,6.17,0.53,9.22,1.16c2.55,0.53,5.19,0.64,7.76,1.12c3.48,0.64,7.1,0.73,10.42,1.95c3.67,1.35,7.39,2.53,10.98,4.17
			c6.01,2.75,11.58,6.22,17.19,9.62c2.84,1.72,5.62,3.59,8.37,5.48c3.03,2.09,6.27,3.85,9.43,5.74c3.64,2.18,7.27,4.37,10.93,6.5
			c5.26,3.05,10.2,6.52,15.01,10.26c3.49,2.71,6.41,5.91,9.4,9.05c1.32,1.38,2.11,3.31,4.07,3.96c0.9,0.3,1.72,0.72,2.58,1.07
			c2.94,1.19,4.27,3.79,5.83,6.2c0.08,0.13,0.15,0.31,0.13,0.45c-0.46,2.41,1.39,3.48,2.73,4.92c3.92,4.22,8.71,7.44,12.76,11.5
			c1.08,1.09,2.08,2.26,3.2,3.3c1.63,1.53,3.17,3.15,4.74,4.72c2.32,2.3,3.69,5.17,3.83,8.59c0.16,4.09-0.04,8.17-0.51,12.2
			c-0.25,2.13-0.69,4.45-3.42,5.47c-1.3,0.49-2.3,1.91-3.63,2.73c-0.94,0.58-1.96,0.44-2.9,0.92c-1.76,0.91-3.41,2.01-4.92,3.19
			c-1.7,1.31-3.44,2.43-5.37,3.28c-1.14,0.5-1.99,1.42-2.63,2.29c-1.98,2.7-4.86,4.06-7.57,5.7c-3.31,1.99-6.73,3.78-9.94,5.93
			c-0.91,0.61-1.69,1.35-2.48,2.11c-1.05,1.01-2.17,1.89-3.58,2.51c-1.97,0.87-3.79,2.14-5.6,3.33c-5.08,3.35-9.77,7.18-14.14,11.42
			c-0.94,0.92-1.6,2-2.03,3.18c-0.74,2.03-1.87,3.65-3.88,4.58c-1.02,0.47-1.47,1.28-1.65,2.42c-0.56,3.47-0.06,4.81,3.12,7.15
			c3.64,2.67,7.72,4.27,12.01,5.15c3.82,0.78,7.78,0.95,11.69,0.71c3.83-0.24,7.67-0.29,11.5-0.48c11.88-0.58,23.77-0.77,35.64-1.34
			c4.47-0.22,9.09,0.19,13.48-1.3c0.57-0.19,1.27,0.02,1.91,0c5.83-0.25,11.6,0.56,17.41,0.81c4.62,0.2,9.2,0.83,13.82,1.02
			c4.76,0.2,9.54,0.72,14.23,1.54c4.87,0.85,9.78,1.67,14.51,3.16c6.01,1.9,12.04,3.81,17.44,7.14c2.53,1.56,5.1,2.73,8.05,3.02
			c0.59,0.06,1.02,0.34,1.5,0.66c1.57,1.04,2.97,2.34,4.63,3.26c0.6,0.33,1.25,0.9,1.49,1.52c1.09,2.81,3.67,4.09,5.84,5.68
			c2.55,1.88,4.78,4.08,7.07,6.22c1.74,1.62,3.42,3.31,5.26,4.83c2.98,2.47,5.66,5.28,8.61,7.79c3.92,3.35,7.3,7.31,11.35,10.52
			c2.55,2.02,5.35,3.72,8.35,5.01c1.29,0.56,2.51,1.24,3.88,1.68c2.01,0.64,3.49,2.18,4.34,4.05c0.84,1.86,2.39,2.85,4.03,3.25
			c2.91,0.72,5.27,2.28,7.64,3.9c2.5,1.7,5.19,2.17,8.11,1.46c2.07-0.5,4.19-0.77,5.96-2.16c0.51-0.4,1.3-0.36,2.03-0.02
			c3.68,1.67,7.58,2.89,10.87,5.38c2.36,1.79,4.44,3.86,6.56,5.9c3.16,3.03,6.53,5.81,10.1,8.34c0.49,0.35,1.05,0.37,1.57,0.53
			c3.11,0.89,5.83,2.38,7.95,4.9c0.56,0.66,1.29,1.17,1.93,1.75c2,1.81,2.64,4.64,1.46,6.36c-1.64,2.38-4.62,3.43-7.09,2.18
			c-1.66-0.84-2.85-0.83-3.87,0.79c-0.42,0.67-1.35,0.48-1.98,1.39c-0.21,0.99-0.05,2.38-0.65,3.63c-0.16,0.32-0.15,0.83,0,1.17
			c0.97,2.31,0.68,4.74,0.62,7.11c-0.06,2.65,0.39,5.19,0.96,7.74c0.24,1.08,0.48,2.16,1.38,2.98c0.98,0.89,1.24,2.21,1.7,3.37
			c0.59,1.51-0.28,2.96-1.2,3.82c-3.04,2.82-6.61,4.26-10.86,2.9c-1.77-0.57-3.18-1.6-4.15-3.16c-1-1.61-1.67-3.36-2.26-5.16
			c-0.81-2.45-1.87-4.82-2.76-7.25c-2.09-5.72-5.67-10.63-8.59-15.9c-3.04-5.48-7.35-9.82-12.41-13.45
			c-1.7-1.22-3.33-2.54-5.01-3.78c-1.12-0.83-2.21-1.73-3.65-2c-0.91-0.17-1.52-0.78-2.12-1.42c-1.02-1.09-2.11-2.09-3.53-2.67
			c-1.44-0.59-2.99-0.79-4.47-1.23c-1.71-0.52-2.99,0.65-3.65,2.61c-1.41,4.22-1.83,8.54-1.45,12.96c0.23,2.71,0.46,5.46,0.07,8.14
			c-0.41,2.8-0.87,5.6-1.66,8.36c-0.96,3.36-2.21,6.57-3.74,9.65c-1.51,3.05-2.4,6.3-3.64,9.42c-1.61,4.05-2.71,8.26-4.34,12.29
			c-1.15,2.86-1.89,5.83-2.63,8.82c-0.8,3.24-1.38,6.47-1.35,9.79c0.01,1.1-0.68,1.82-1.26,2.44c-2.18,2.3-3.56,5.05-4.64,7.94
			c-1.43,3.82-2.81,7.66-3.88,11.61c-0.39,1.43-0.31,2.84-0.38,4.26c-0.12,2.61-0.1,5.28-2.42,7.16c-0.59,0.48-0.4,1.17-0.39,1.79
			c0.04,1.36,0.08,2.72,0.19,4.07c0.2,2.61-0.75,4.84-2.48,6.64c-2.09,2.18-4.56,3.76-7.81,3.73c-2.87-0.03-5.19-1.83-5.3-4.76
			c-0.12-3.28-0.65-6.51-1.3-9.67c-0.49-2.39-0.77-4.84-1.5-7.2c-0.79-2.57-1.15-5.26-1.8-7.88c-0.42-1.69-0.94-3.37-1.52-5.01
			c-0.95-2.67-1.99-5.31-2.97-7.97c-0.6-1.64-1.52-3.12-2.52-4.52c-1.28-1.79-3.18-1.39-4.97-1.16c-1.77,1.82-1.84,4.34-2.73,6.49
			c-0.88,2.11-1.81,4.21-2.61,6.36c-1.21,3.26-2.82,6.35-4.16,9.54c-1.69,4-4.35,6.38-8.65,7.5c-2.82,0.73-4.77-0.06-6.91-1.49
			c-0.91-0.61-0.99-1.51-1.39-2.31c-1.03-2.07-1.57-4.22-1.54-6.56c0.07-5.2-0.81-10.23-2.37-15.23c-1.26-4.04-2.58-8.06-3.79-12.12
			c-1.86-6.27-2.92-12.61-3.41-19.13c-0.25-3.37-0.56-6.78-1.12-10.13c-0.24-1.45-0.95-2.79-1.27-4.27
			c-0.5-2.29-0.73-4.57-0.79-6.87c-0.06-2.1-0.44-4.1-1.02-6.1c-0.7-2.41-2.4-3.59-4.69-4.07c-1.01-0.21-2.07-0.35-3.1-0.3
			c-4.55,0.24-8.95-1.38-13.5-1.12c-0.38,0.02-0.8-0.07-1.16-0.23c-2.55-1.13-5.24-1.2-7.97-1.21c-12.79-0.01-25.59-0.13-38.38-0.05
			c-5.96,0.04-11.9,0.62-17.83,1.42c-3.67,0.5-7.34,1.14-11.05,1.46c-3.23,0.27-6.39,1.2-9.68,1.08c-1.68-0.06-3.33-0.3-4.92-0.8
			c-4.3-1.36-7.68-0.36-9.76,4.45c-1.15,2.66-2.41,5.27-3.5,7.97c-0.85,2.08-1.39,4.27-1.69,6.4c-0.51,3.53-1.13,7.05-1.47,10.62
			c-0.41,4.26-0.91,8.54-1.59,12.77c-0.68,4.22-1.07,8.48-1.8,12.68c-0.78,4.52-0.67,9.17-2,13.6c-0.13,0.45-0.09,0.95-0.1,1.43
			c-0.08,3.91-1.15,7.69-1.64,11.55c-0.34,2.68-0.65,5.36-1.13,8.02c-0.47,2.58-0.58,5.2-0.97,7.78c-0.63,4.14-1.41,8.27-2.38,12.35
			c-0.48,2.02-1.02,4.09-2.79,5.61c-1.54,1.33-3.12,1.98-5.11,1.53c-2.16-0.49-4.21-1.28-6.02-2.59c-0.06-0.05-0.13-0.11-0.2-0.12
			c-3.2-0.48-3.32-2.86-3.31-5.34c0.01-2.32-0.27-4.61-0.68-6.9c-0.3-1.64-0.42-3.35-0.36-5.02c0.11-3.16-0.45-6.25-1.22-9.23
			c-0.5-1.94-0.93-3.98-1.93-5.81c-1.12-2.04-2.38-2.46-4.4-1.51c-2.11,1-2.77,3.05-3.9,4.77c-0.04,0.06-0.02,0.16-0.06,0.23
			c-1.31,2.1-3.39,3.66-3.98,6.29c-0.55,2.47-2.84,3.69-4.51,5.35c-2,1.98-4.37,2.14-6.63,0.94c-2.01-1.07-4.08-2.26-5.29-4.41
			c-0.69-1.23-1.34-2.46-1.62-3.86c-0.8-4.02-1.84-7.99-2.59-12.04c-0.69-3.72-1.46-7.44-2.36-11.11c-1.46-6-2.59-12.06-4-18.06
			c-1.11-4.68-2.35-9.33-3.39-14.02c-1.04-4.7-2.36-9.35-3.28-14.06c-0.86-4.43-1.92-8.83-2.77-13.26
			c-0.47-2.46-0.86-4.98-1.68-7.41c-0.76-2.24-0.97-4.66-1.47-6.99c-0.51-2.37-1.16-4.71-1.6-7.09c-0.26-1.39-0.44-2.87-0.27-4.26
			c0.37-2.92-0.64-5.5-1.65-8.07c-0.53-1.34-1.53-2.48-3.15-2.6c-1.11-0.08-2.02-0.73-3.15-0.88c-3.3-0.43-6.25,0.44-9.19,1.78
			c-2.87,1.3-5.87,2.26-8.91,3.06c-3,0.79-5.62,2.41-8.38,3.71c-2.4,1.13-4.81,2.22-7.27,3.2c-1.98,0.79-3.92,1.67-5.89,2.46
			c-1.74,0.7-3.56,1.26-5.3,1.9c-2.58,0.94-5.15,1.91-7.75,2.81c-3.11,1.08-6.29,2.01-9.32,3.26c-1.71,0.71-3.49,1.37-5.01,2.5
			c-0.31,0.23-0.65,0.58-1,0.6c-2.68,0.15-4.79,1.88-7.28,2.61c-2.09,0.61-4.02,1.74-6.03,2.63c-3.07,1.37-6.16,2.67-9.19,4.11
			c-2.09,0.99-4.27,1.75-6.19,3.17c-2.47,1.83-5.33,2.95-8.4,3.65c-2.03,0.47-3.88,1.69-5.87,2.4c-4.53,1.62-8.49,4.42-12.93,6.18
			c-3.69,1.46-7.56,2.11-11.36,0.36c-2.19-1.01-3.72-2.82-4.6-5.11c-1.23-3.21-1.81-6.55-1.83-9.97c-0.02-4-0.45-8.07,0.18-11.97
			c0.59-3.68,0.73-7.4,1.36-11.08c0.54-3.19,1.5-6.34,1.49-9.65c-0.01-6.26-3.92-8.49-8.61-9.06c-2.28-0.28-4.61,0.84-6.86,1.56
			c-1.85,0.59-3.61,1.46-5.58,1.69c-1.97,0.24-3.78,1.1-5.7,1.56c-4.46,1.07-8.97,1.97-13.4,3.17c-4.71,1.27-9.48,2.3-14.13,3.81
			c-2.01,0.65-4.08,1.27-6.11,1.9c-2.76,0.86-5.52,1.7-8.33,2.43c-3.85,1-7.7,1.79-11.69,1.75c-2.87-0.03-5.67,0.39-8.51,0.76
			c-2.92,0.38-5.97,0.51-8.98-0.29c-1.89-0.51-3.87-0.69-5.81-1.12c-2.3-0.51-3.21-2.07-4.19-3.66c-1.8-2.89-1.81-6.15-1.56-9.44
			c0.29-3.66,2.37-5.92,5.33-7.76c2.85-1.77,5.57-3.77,8.23-5.82c1.03-0.79,1.79-1.95,2.58-3.02c3.03-4.12,6.68-7.56,10.79-10.64
			c4.09-3.06,8.11-6.28,11.47-10.18c1.56-1.81,3.72-2.82,5.59-4.19c0.69-0.5,1.33-0.93,1.76-1.65c1.87-3.13,4.71-5.12,7.76-6.97
			c3.75-2.28,6.77-5.47,9.69-8.7c1.11-1.23,2.4-2.32,3.74-2.98c4.54-2.23,7.79-5.91,11.42-9.22c2.74-2.5,5.81-4.67,9.25-6.17
			c0.87-0.38,1.46-1.02,1.84-1.78c0.62-1.25,1.35-2.31,2.73-2.78c0.15-0.05,0.31-0.13,0.41-0.24c2.49-2.89,5.92-4.71,8.59-7.43
			c1.55-1.58,3.59-2.69,5.18-4.32c2.84-2.89,6.4-4.69,9.95-6.55c3.52-1.85,6.86-4.07,10.33-6c2.71-1.5,4.43-3.98,6.92-5.64
			c1.15-0.77,1.69-2.24,2.7-3.27c1.55-1.58,3.37-2.58,5.41-3.17c1.53-0.45,2.8-1.18,3.68-2.48c0.7-1.04,1.64-1.66,2.82-1.89
			c1.46-0.28,2.47-0.97,3.46-2.19c0.92-1.13,2.03-2.11,2.87-3.38c1.42-2.15,1.62-4.64,2.05-7.01c1.07-5.86,3.9-10.52,8.8-13.86
			c2.16-1.47,4.15-2.99,4.89-5.67c0.16-0.59,0.73-0.98,1.25-1.37c1.32-0.98,2.61-2,3.84-3.09c1.71-1.5,2.04-3.15,1.21-5.32
			c-0.8-2.09-1.9-4.02-3.04-5.93c-0.23-0.38-0.43-0.58-0.84-0.69c-1.28-0.36-2.2-1.15-2.62-2.44c-1.15-3.52-3.81-5.94-6.29-8.42
			c-4.31-4.32-8.11-9.09-12.23-13.57c-4.14-4.48-7.8-9.36-11.58-14.13c-3.24-4.1-6.26-8.36-9.23-12.66
			c-1.03-1.48-2.07-2.97-3.24-4.33C131.32,511.82,130,509.52,128.87,506.93z M136.5,763.8c1.99,0.57,3.72,0.17,5.24-0.74
			c1.38-0.82,2.82-1.17,4.34-1.04c2.88,0.25,5.49-0.96,8.09-1.74c3.1-0.94,6.02-2.6,8.85-4.23c1.87-1.08,4.09-1.76,5.49-3.45
			c1.52-1.83,3.54-2.7,5.61-3.08c3.82-0.69,7.38-2.36,11.27-2.77c1.15-0.12,2.48-0.65,3.45-1.52c2.1-1.87,4.6-2.77,7.29-3.31
			c0.69-0.14,1.48-0.32,1.99-0.75c3.31-2.8,7.54-3.3,11.45-4.36c3.74-1.01,7.23-2.51,10.68-4.1c3.54-1.63,6.89-3.68,10.09-5.97
			c1.48-1.06,3.03-2.45,4.95-2.51c3.08-0.08,5.85-1.16,8.72-2.05c1.51-0.47,2.98-1.13,4.53-1.37c1.75-0.26,3.39-0.93,4.92-1.58
			c3.54-1.51,7.28-1.95,10.97-2.64c4.58-0.85,9.24-0.52,13.88-0.51c3.91,0.01,7.83,0.22,11.75,0.01c2.47-0.14,4.03-1.33,5.12-3.4
			c1.62-3.09,3.82-5.8,5.94-8.51c1.44-1.84,3.32-3.39,4.62-5.36c1.65-2.49,3.56-4.57,6.47-5.52c0.31-0.1,0.57-0.2,0.78-0.48
			c1.65-2.25,4.09-3.25,6.58-4.22c2.22-0.87,4.1-2.01,5.32-4.35c1.49-2.88,3.26-5.69,6.14-7.53c0.62-0.4,1.05-1.1,1.53-1.69
			c1.23-1.5,1.99-3.12,1.92-5.16c-0.05-1.58-1.02-2.86-1.09-4.37c-0.08-1.62-0.8-2.9-1.86-3.99c-0.92-0.94-1.74-1.98-2.63-2.94
			c-1.51-1.62-2.41-3.61-2.35-5.95c0.04-1.67-0.07-3.32-0.4-4.99c-0.36-1.79-0.43-3.65-0.47-5.48c-0.07-3.26-0.06-6.49-1.33-9.61
			c-1.03-2.5-2.4-4.42-5.23-4.97c-1.28-0.25-2.54-0.24-3.8-0.02c-1.98,0.35-3.97,0.34-5.97,0.43c-2.93,0.14-4.87-1.36-6.54-3.55
			c-0.82-1.07-0.87-2.37-1.42-3.5c-1.47-3.01-1.21-6.02,0.64-8.61c2.7-3.77,2.48-7.55,0.59-11.36c-0.63-1.27-1.8-2.37-3.39-2.91
			c-1.7-0.57-3.3-1.48-4.9-2.32c-1.95-1.02-3.78-2.32-5.8-3.14c-2.78-1.12-5.37-2.63-8.02-3.96c-2.39-1.2-4.84-2.2-7.34-2.9
			c-3.57-0.99-7.29-1.44-10.95-2.13c-3.07-0.58-6.21-0.37-9.3-0.73c-3.02-0.34-6.07-0.41-9.09-0.02c-3.4,0.44-6.87,0.17-10.25,0.89
			c-2.85,0.61-5.72,1.15-8.59,1.69c-2.04,0.38-4.01,0.99-5.97,1.53c-3.09,0.85-6.18,1.83-9.22,2.91c-2.07,0.74-3.84,1.7-5.36,3.24
			c-1.37,1.39-2.99,2.34-4.94,2.63c-0.65,0.1-1.02,0.44-1.5,0.92c-3.18,3.2-6.61,6.13-8.98,10.11c-0.83,1.4-1.33,2.57-1.05,4.14
			c0.14,0.78,0.08,1.6,0.15,2.39c0.22,2.44-0.75,4.22-2.72,5.69c-5.56,4.19-11.19,8.29-16.84,12.36c-3.97,2.86-7.89,5.78-11.81,8.69
			c-3.41,2.53-6.97,4.88-10.15,7.67c-3.45,3.03-6.62,6.38-10.22,9.27c-2.64,2.12-5.45,3.95-8.64,4.95
			c-2.11,0.66-3.72,1.86-5.33,3.18c-1.46,1.2-2.75,2.67-4.37,3.6c-1.63,0.93-2.51,2.24-3.38,3.78c-0.92,1.63-2.1,3.1-4.23,3.46
			c-1.79,0.3-3.19,1.37-4.5,2.68c-1.82,1.82-3.79,3.52-5.83,5.1c-5.13,3.97-10.52,7.64-14.83,12.56c-2.02,2.31-4.36,3.97-7.41,4.46
			c-0.99,0.16-1.63,0.69-2.07,1.45c-2.34,3.93-5.19,7.46-8.29,10.78c-4.52,4.82-9.31,9.37-14.2,13.83c0.73,1.88,1.5,2.39,3.61,1.56
			c1.94-0.76,3.88-0.79,5.88-0.81c0.88-0.01,1.76-0.08,2.64-0.1c0.66-0.02,1.3-0.16,1.76-0.64c1.43-1.48,3.39-1.89,5.2-2.45
			c3.47-1.06,7.13-1.39,10.61-2.5c1.04-0.33,2.33,0.01,3.3-0.42c2.2-0.98,4.59-1.14,6.86-1.78c1.96-0.55,4.01-1.03,5.92-1.64
			c2.46-0.78,4.89-1.98,7.32-2.9c4.67-1.76,9.52-3.1,14.37-4.32c5.1-1.28,10.22-2.47,15.34-3.68c3.31-0.78,6.51-1.91,9.81-2.7
			c1.34-0.32,2.7-0.85,4.02-1.35c2.34-0.9,4.57-2.14,6.96-2.85c2.15-0.63,4.34-1.31,6.68-1.16c1.01,0.06,2.14-0.02,3.06-0.42
			c4.04-1.74,8.42-2.12,12.6-3.27c2.14-0.59,4.36-0.88,6.52-1.34c4.08-0.87,8.07-2.2,12.1-3.32c1.66-0.46,3.36-0.75,5-1.29
			c2.91-0.96,5.85-1.84,8.74-2.87c4.1-1.47,8.33-2.65,11.87-5.36c0.79-0.61,1.78-0.69,2.44-0.12c0.69,0.59,1.42,0.59,2.17,0.79
			c3.51,0.9,6.86,2.16,9.75,4.44c1.38,1.08,2.52,2.35,3.07,4.02c0.87,2.63,1.05,5.33,0.01,7.95c-0.64,1.64-1.39,3.29-3.27,3.95
			c-3.14,1.1-6.42,1.16-9.68,1.1c-2.9-0.05-5.68,0.72-8.44,1.33c-1.5,0.33-3.1,0.73-4.5,1.38c-1.57,0.73-3.24,1.25-4.84,1.73
			c-2.78,0.83-5.58,1.7-8.28,2.67c-3.04,1.1-6.14,1.98-9.21,2.9c-3.62,1.08-7.39,1.79-11.07,2.7c-3.98,0.99-8.01,1.9-12,2.77
			c-5.25,1.15-10.52,2.37-15.91,2.89c-1.94,0.19-3.92,0.75-5.7,1.64c-3.37,1.7-5.63,4.51-7.26,7.82c-1.04,2.11-1.75,4.36-2.49,6.61
			c-0.97,2.96-1.67,5.94-1.97,9.03c-0.17,1.75-0.28,3.5-0.42,5.26C135.53,755.99,135.3,759.89,136.5,763.8z M327.62,802.3
			c1.65-0.69,1.79-0.68,1.91-1.88c0.25-2.46,0.91-4.82,1.49-7.21c0.61-2.47,1.61-4.8,2.51-7.12c0.98-2.51,2.05-5.01,3.06-7.52
			c0.94-2.32,1.83-4.63,2.54-7.05c0.84-2.87,2.02-5.62,2.06-8.68c0.01-0.8-0.04-1.64,0.2-2.38c0.63-2.03,0.28-4.33,1.58-6.15
			c1.36-1.9,3.36-3.34,4.02-5.74c0.12-0.44,0.65-0.42,0.97-0.63c1-0.68,1.42-1.63,1.58-2.81c0.61-4.42,1.9-8.56,4.75-12.14
			c1.6-2.02,3.21-4.1,4.39-6.37c1.21-2.33,2.79-4.22,4.66-6c1.04-0.99,1.94-2.14,2.7-3.42c2.78-4.65,6.1-8.91,9.8-12.86
			c2.79-2.98,4.82-6.29,5.9-10.3c0.75-2.77,1.53-5.58,2.89-8.18c0.64-1.21,0.88-2.86-0.11-4.08c-1.06-1.33-2.38-2.38-4.26-2.57
			c-1.91-0.19-3.83-0.48-5.73-0.21c-4.39,0.62-8.58-0.34-12.74-1.46c-1.2-0.32-2.35-0.46-3.54-0.21c-4.17,0.86-7.67,2.8-10.54,6.04
			c-3.79,4.28-8.18,7.89-13,11.01c-1.73,1.12-3.6,2.12-5.07,3.65c-1.51,1.57-2.65,3.42-4.31,4.92c-2.37,2.15-4.85,3.97-7.9,4.87
			c-0.83,0.24-1.6,0.66-1.94,1.21c-1.06,1.67-2.7,2.61-4.33,3.27c-3.12,1.26-5.36,3.53-7.11,6.12c-1.05,1.56-2.17,2.34-3.83,2.71
			c-0.7,0.16-1.4,0.32-2.1,0.49c-2.02,0.49-3.96,1.41-5.4,2.74c-3.24,2.99-5.99,6.44-8.07,10.39c-1.46,2.78-2.54,5.69-3.58,8.66
			c-0.93,2.65-1.4,5.4-1.7,8.08c-0.91,8.14,0.01,16.22,2.25,24.1c1.01,3.56,1.45,7.19,1.73,10.83c0.2,2.5,0.91,4.86,1.46,7.22
			c0.62,2.68,1.38,5.36,1.88,8.06c0.68,3.6,1.94,7.02,2.93,10.51c0.57,2.02,1.25,4.07,1.72,6.1c0.54,2.3,1.58,4.51,1.49,6.95
			c-0.01,0.3,0.15,0.62,0.28,0.91c0.31,0.72,0.85,1.1,1.66,1.13c0.81,0.03,1.41-0.27,1.76-0.97c0.39-0.79,0.66-1.62,0.63-2.53
			c-0.03-0.97,0.13-1.91,0.52-2.81c1.15-2.65,2.43-5.23,3.87-7.75c0.68-1.19,1.25-2.47,1.55-3.92c0.71-3.39,0.88-6.8,1.03-10.22
			c0.21-4.86,0.51-9.72-0.13-14.59c-0.34-2.57-1-5.13-0.17-7.81c0.75-2.42,2.9-4.45,5.4-4.65c2.51-0.19,4.64,0.91,6.82,1.84
			c2.06,0.88,3.44,2.33,3.82,4.73c0.48,3.03,2.44,5.47,3.69,8.2c1.08,2.36,2.24,4.77,2.62,7.3
			C326.59,796.79,327.98,799.24,327.62,802.3z M501.81,818.73c0.67-4.05,2-7.76,4.54-10.81c2.12-2.55,2.86-5.3,2.53-8.48
			c-0.03-0.32-0.04-0.65,0-0.96c0.43-2.81,0.86-5.65,2.22-8.18c0.73-1.36,1.72-2.6,2.59-3.89c0.65-0.97,1.75-1.73,3.19-1.88
			c1.65-0.17,3.24-0.55,4.91,0.03c2.7,0.94,5.26,1.92,6.46,4.9c0.48,1.19,0.52,2.33,0.46,3.5c-0.33,6.79-0.43,13.57,0.02,20.36
			c0.2,2.97,1.04,5.81,1.54,8.7c0.25,1.48,0.61,3.1,1.27,4.54c1.65,3.66,4.08,6.86,6.03,10.35c0.91,1.62,1.99,1.47,2.86-0.26
			c0.98-1.96,1.63-4.1,3.23-5.71c2.03-2.03,2.82-4.61,3.53-7.31c0.52-1.97,1.17-4.02,2.27-5.7c2.25-3.4,2.98-7.31,4.11-11.05
			c0.72-2.38,1.4-4.88,1.66-7.41c0.25-2.38,1.36-4.51,2.12-6.72c0.5-1.46,0.52-3.28,1.61-4.36c1.09-1.07,1.34-2.47,2.16-3.6
			c0.59-0.82,0.38-1.82,0.78-2.72c1.71-3.85,2.9-7.87,3-12.13c0.05-2.32,0.18-4.65,0.64-6.91c0.5-2.46,0.45-4.91,0.53-7.38
			c0.13-4.19-0.79-8.05-3.55-11.33c-0.21-0.24-0.34-0.47-0.45-0.78c-0.75-2.16-0.82-4.56-2.39-6.43c-1.3-1.54-0.66-3.8-1.93-5.37
			c-1.16-1.43-1.26-3.34-2.11-4.92c-1.27-2.36-3.28-4.13-4.88-6.22c-1.86-2.43-4.31-4.42-5.88-7.07c-0.52-0.88-1.13-1.36-1.94-1.47
			c-2.07-0.28-4.17,0.05-6.09,0.75c-1.23,0.45-2.4,1.28-3.27,2.54c-0.9,1.31-1.79,2.64-2.48,4.05c-1.18,2.39-3.73,3.5-5.06,5.72
			c-0.85,1.42-2.09,2.46-3.41,3.47c-1.61,1.23-3.46,2.27-4.57,4c-0.57,0.89-1.16,1.8-2.03,2.1c-3.07,1.07-5.29,3.35-7.88,5.11
			c-0.06,0.04-0.17,0.03-0.23,0.07c-1.59,1.27-3.74,1.45-5.3,2.92c-1.97,1.86-3.9,3.73-5.74,5.73c-2.23,2.41-4.34,4.95-6.9,7.03
			c-1.83,1.5-2.15,2.51-1.21,4.66c1.17,2.67,2.22,5.42,2.24,8.38c0.02,2.22,0.22,4.56-0.85,6.58c-0.46,0.87-0.63,1.66-0.46,2.44
			c0.76,3.38,0.6,6.83,0.87,10.24c0.04,0.55,0.05,1.15,0.26,1.64c1.7,3.91,2.03,8.14,2.63,12.25c0.69,4.73,1.49,9.41,2.83,13.97
			c0.37,1.27,0.98,2.68,2.32,3.4C499.66,819.7,500.62,819.14,501.81,818.73z M380.81,754.94c5.64,0.21,12.3-0.73,19-1
			c2.15-0.09,3.94-1.01,5.8-1.85c2.75-1.24,5.04-3.18,7.49-4.86c1-0.68,1.79-1.46,2.32-2.54c0.96-1.96,2.46-3.42,4.44-4.29
			c0.91-0.4,1.67-0.9,2.34-1.59c2.31-2.36,4.76-4.58,6.7-7.31c0.97-1.37,2.01-2.73,3.12-4.02c1.57-1.81,3.44-3.42,4.54-5.61
			c0.64-1.27,1.55-2.32,2.42-3.41c2.43-3.03,5.02-5.94,7.51-8.92c1.03-1.23,2.13-2.44,2.86-3.96c1.94-4.02,4.27-7.86,7.59-10.84
			c3.27-2.93,5.3-6.67,7.56-10.26c2.23-3.54,0.69-6.31-3.39-6.55c-6.36-0.38-12.75-0.19-19.11-0.82c-3.39-0.33-6.82,0.02-10.24,0.49
			c-5.43,0.75-10.96,0.32-16.38,1.56c-3.86,0.89-6.25,3.35-7.84,6.56c-1.04,2.1-2.1,4.13-3.35,6.11c-1.16,1.83-2.84,3.43-3.14,5.74
			c-0.05,0.39-0.32,0.49-0.57,0.68c-3.09,2.3-5.04,5.43-6.66,8.87c-0.79,1.67-1.18,3.69-2.96,4.71c-1.46,0.84-2.11,2.15-2.81,3.59
			c-1.24,2.54-2.25,5.25-4.2,7.4c-1.12,1.24-1.92,2.65-2.52,4.21c-0.37,0.96-0.9,1.9-1.84,2.42c-5.02,2.76-7.76,7.18-9.32,12.53
			c-0.36,1.25-1,2.44-1.63,3.6c-1.04,1.89-2.51,3.4-4.27,4.66c-0.96,0.69-1.44,2.06-1.1,2.9c0.41,1.03,1.38,0.91,2.23,1.05
			C370.16,754.98,374.95,755,380.81,754.94z M233.98,546.71c0.14,3.11-0.33,6.23,0.09,9.34c0.2,1.48,1.93,2.93,3.4,2.78
			c2.23-0.22,4.04,0.6,5.19,2.44c0.57,0.92,1.21,1.59,2.15,1.99c0.99,0.42,2.1,0.44,3.05,0.07c2.24-0.86,4.55-0.62,6.85-0.64
			c3.67-0.03,7.34,0.51,11.02,0.09c1.62-0.18,3.33-0.63,4.12-2c1.04-1.82,2.09-3.66,2.82-5.68c1.04-2.87,2.34-5.65,3.54-8.47
			c1.62-3.77,3.56-7.4,5.32-11.11c2.03-4.27,4.14-8.49,5.98-12.85c1.95-4.61,4.45-8.97,6.44-13.57c1.54-3.55-0.29-7.5-4.14-8.22
			c-4.74-0.89-9.51-1.68-14.3-2.31c-3.54-0.46-7.02-1.47-10.64-1.38c-0.39,0.01-0.77-0.18-1.17-0.25
			c-3.41-0.59-6.85-0.48-10.25-0.12c-3.54,0.38-7.04,1.17-10.58,1.63c-1.35,0.18-2.62,0.54-3.91,0.89c-2.67,0.72-3.9,2.87-4.75,5.19
			c-0.85,2.3-1.5,4.68-2.06,7.06c-0.66,2.75-0.76,5.61-0.02,8.31c1,3.62,1.8,7.23,1.87,11C234.1,536.18,233.24,541.44,233.98,546.71
			z M284.69,565.56c2.86,4.31,7.27,6.3,11.35,8.71c3.69,2.17,7.42,4.22,10.16,7.67c1.66,2.08,4.07,3.15,6.6,3.59
			c3.05,0.53,5.84-0.5,8.58-1.91c2.08-1.07,3.47-2.77,5.01-4.35c2.94-3.05,5.36-6.53,7.99-9.84c1.32-1.67,2.75-3.24,5.13-3.32
			c0.89-0.03,1.39-0.74,1.93-1.31c6.11-6.39,11.71-13.25,17.99-19.48c1.14-1.13,1.46-2.65,0.79-3.71c-1.15-1.82-1.29-3.87-2.03-5.77
			c-0.3-0.78-0.63-1.43-1.44-1.79c-3.29-1.49-6-3.79-8.77-6.07c-6.84-5.64-13.78-11.15-20.71-16.68c-2.1-1.67-4.53-1.94-6.89-0.8
			c-1.45,0.7-2.76,1.78-4.15,2.61c-1.62,0.97-2.71,2.26-3.14,3.92c-0.48,1.84-1.54,3.21-2.81,4.4c-0.78,0.74-1.41,1.57-1.69,2.47
			c-0.93,2.92-1.7,5.89-2.42,8.87c-0.64,2.64-1.72,5.05-3.72,6.9c-0.98,0.9-1.6,1.92-1.91,3.13c-0.55,2.17-1.44,4.16-2.81,5.92
			c-2.63,3.37-5.79,6.31-8.03,10.01C288.24,561.1,285.9,562.85,284.69,565.56z M431.23,753.77c0.88,0.12,1.82,0.38,2.76,0.36
			c3.37-0.07,6.68,0.21,9.95,1.07c1.08,0.29,2.22-0.12,3.32,0.29c2.81,1.05,5.75,1.52,8.72,1.78c2.84,0.25,5.57-0.51,8.21-1.26
			c1.8-0.51,3.73-1.34,4.99-3.01c3.08-4.08,6.72-7.61,10.68-10.83c2.3-1.87,4.35-4.07,6.04-6.41c1.38-1.91,2.82-3.6,4.54-5.19
			c1.89-1.75,3.95-3.26,5.84-4.98c3.51-3.21,7.22-6.19,10.81-9.3c3.2-2.77,6.39-5.6,9.77-8.16c0.58-0.44,0.88-0.88,0.92-1.54
			c0.12-2.14,0.98-3.98,2.57-5.34c1.02-0.88,0.85-1.54,0.14-2.37c-0.93-1.08-1.72-2.25-2.3-3.54c-0.4-0.89-1.01-1.6-1.68-2.27
			c-1.59-1.6-3.59-2.54-5.61-3.41c-2.07-0.9-4.08-1.92-6.21-2.71c-2.05-0.76-4.02-1.69-6.24-1.89c-0.95-0.09-1.9-0.24-2.85-0.37
			c-3.44-0.46-6.47,0.25-8.64,3.19c-0.93,1.25-1.73,2.59-2.64,3.86c-1.9,2.66-4.46,4.71-6.68,7.09c-1.33,1.43-2.98,2.57-3.95,4.33
			c-1.29,2.33-3,4.27-5,6.03c-2.11,1.85-4.41,3.5-6.34,5.56c-1.09,1.16-1.93,2.39-2.43,3.97c-0.53,1.65-0.85,3.6-2.7,4.49
			c-2.03,0.98-3.13,3.05-5.02,4.19c-0.32,0.19-0.65,0.57-0.74,0.92c-0.35,1.46-1.32,2.47-2.32,3.47c-0.42,0.42-0.45,1.01-0.69,1.47
			c-0.54,1.03-1.25,2.09-2.6,1.99c-1.18-0.09-1.69,0.82-2.36,1.37c-1.01,0.83-1.71,2.03-2.7,2.89c-1.21,1.05-2.14,2.24-2.79,3.69
			c-1.37,3.05-2.88,5.96-6.06,7.6C430.81,751.38,430.64,752.48,431.23,753.77z M216.16,563.69c0.51-1.3,0.47-2.88,2.06-3.56
			c0.28-0.12,0.46-0.66,0.53-1.03c0.34-1.88,0.77-3.73,0.47-5.68c-0.87-5.67-1.66-11.36-1.84-17.1c-0.1-3.12-0.12-6.23-0.22-9.35
			c-0.07-1.92-0.24-3.88-1.11-5.58c-0.83-1.63-0.94-3.2-0.52-4.86c0.31-1.26,0.34-2.54,0.26-3.81c-0.12-1.89-0.85-3.59-2.49-4.58
			c-1.13-0.68-2.49-1.3-3.77-1.36c-4.04-0.19-8.08-0.68-12.12,0.5c-2.05,0.6-4.11,1.22-6.16,1.8c-1.77,0.5-3.68,0.53-5.3,1.24
			c-2.14,0.93-4.46,0.97-6.6,1.87c-1.79,0.75-3.72,1.27-5.55,1.97c-2.26,0.87-4.5,1.77-6.72,2.73c-2.43,1.05-4.95,1.93-7.18,3.41
			c-1.84,1.21-2.2,2.38-1.26,4.37c0.61,1.28,1.57,2.29,2.47,3.35c4.88,5.76,9.76,11.51,14.6,17.29c3.77,4.5,7.5,9.03,11.22,13.57
			c1.31,1.6,3.16,2.73,4.02,4.7c0.72,1.65,2.02,2.63,3.67,3.2c4.22,1.46,8.35,1.46,12.55-0.27c1.33-0.55,2.75-1.21,4.23-1.33
			C213.1,565.01,214.6,564.35,216.16,563.69z M341.37,622.32c2.32,0.13,4.26-0.31,6.25-1.02c3.36-1.2,6.52-2.66,9.45-4.71
			c2.94-2.05,5.3-4.68,7.8-7.18c0.96-0.96,1.9-1.81,3.29-2.22c0.91-0.27,1.64-1.04,2.34-1.85c1.59-1.82,3.66-3.02,6.03-3.71
			c2.3-0.68,4.52-1.54,6.06-3.59c1.24-1.65,2.77-3.04,4.46-4.23c2.64-1.85,5.24-3.76,7.63-5.93c3.92-3.56,6.46-7.79,6.14-13.32
			c-0.03-0.55,0.11-1.17-0.3-1.61c-1.27-1.4-2.29-3.1-3.62-4.31c-2.55-2.34-5.7-4.03-9.11-4.75c-4.91-1.04-9.93-1.37-14.97-1.32
			c-1.58,0.02-2.66,0.77-3.37,1.8c-2.35,3.46-5.7,5.56-9.23,7.54c-1.07,0.6-1.84,1.53-2.45,2.76c-1.37,2.79-3.02,5.4-5.28,7.7
			c-5.31,5.41-10.7,10.76-15.4,16.74c-3.64,4.63-3.58,8.82-0.93,14.25C337.69,616.45,339.81,619.17,341.37,622.32z"/>
		<path class="st0" d="M257.86,628.11c0.32,4.69-3.23,5.49-6.36,4.82c-1.34-0.29-2.66-0.46-4.01-0.53c-3.72-0.2-7.13-1.25-10.06-3.6
			c-2.33-1.87-4.16-4.1-4.33-7.29c-0.02-0.39-0.07-0.82-0.24-1.16c-1.97-3.9,2.39-7.09,6.02-6.74c2.8,0.27,4.93,2,7.26,3.26
			c3.28,1.78,6.1,4.28,9.29,6.19C257.46,624.28,258.17,625.89,257.86,628.11z"/>
		<path class="st0" d="M279.55,613.22c2.99-0.45,5.35,1.15,7.13,3.37c2.02,2.52,3.82,5.27,5.06,8.31c0.91,2.25-0.06,4.35-2.25,5.37
			c-1.68,0.79-3.46,1.2-5.21,1.63c-1.6,0.39-3.28,0.5-4.85-0.46c-1.64-1-3.47-1.7-5.03-2.81c-2.53-1.79-3.93-4.26-3.56-7.5
			c0.18-1.58,0.34-3.16,0.5-4.74c0.13-1.23,0.74-1.95,1.99-2.24C275.33,613.7,277.3,613.09,279.55,613.22z"/>
		<path class="st0" d="M543.12,767.34c-1.66,0.43-3.33-0.06-4.97,0.7c-1.97,0.91-3.3,2.41-4.73,3.88c-0.66,0.68-1.28,1.43-2.03,2
			c-1.69,1.31-3.2,1.1-4.52-0.58c-0.44-0.56-0.79-1.18-1.16-1.76c0.4-2.32,2.17-3.79,3.46-5.45c2.11-2.69,3.25-5.79,4.05-8.93
			c0.93-3.67,2.8-6.54,5.38-9.16c1.05-1.07,2.16-2.12,3.05-3.37c0.26-0.37,0.61-0.68,0.68-1.14c0.17-1.24,0.92-1.76,2.02-2.35
			c1.5-0.81,2.73-2.14,3.85-3.49c1.69-2.04,2.77-2.38,5.2-1.64c0.37,0.11,0.79,0.08,0.98,0.53c0.67,1.57,2.02,2.63,3,3.97
			c1.39,1.89,1.4,4.04,0.43,6.2c-2.92,6.51-6.56,11.85-9.85,15.41C546.32,763.9,544.39,765.34,543.12,767.34z"/>
	</g>
</g>
</svg>
